<mxfile host="app.diagrams.net" modified="2022-05-06T16:06:51.602Z" agent="5.0 (Macintosh; Intel Mac OS X 10_15_7) AppleWebKit/537.36 (KHTML, like Gecko) Chrome/100.0.4896.127 Safari/537.36" etag="n7gAZa-gwscZ1E4kP5AU" version="17.4.4" type="github">
  <diagram id="dFKEKhrqLx2nFAdBG5SY" name="Page-1">
    <mxGraphModel dx="1892" dy="956" grid="1" gridSize="10" guides="1" tooltips="1" connect="1" arrows="1" fold="1" page="1" pageScale="1" pageWidth="1100" pageHeight="850" background="#FFFFFF" math="0" shadow="0">
      <root>
        <mxCell id="0" />
        <mxCell id="1" parent="0" />
        <mxCell id="WGCQ1PHkLu7HlypYQ9xg-3" value="" style="group" vertex="1" connectable="0" parent="1">
          <mxGeometry x="66" y="269" width="380" height="245" as="geometry" />
        </mxCell>
        <mxCell id="WGCQ1PHkLu7HlypYQ9xg-1" value="" style="rounded=0;whiteSpace=wrap;html=1;" vertex="1" parent="WGCQ1PHkLu7HlypYQ9xg-3">
          <mxGeometry y="35" width="380" height="210" as="geometry" />
        </mxCell>
        <mxCell id="WGCQ1PHkLu7HlypYQ9xg-2" value="&lt;font style=&quot;font-size: 26px&quot;&gt;Actor Alerts&lt;/font&gt;" style="text;html=1;strokeColor=none;fillColor=none;align=center;verticalAlign=middle;whiteSpace=wrap;rounded=0;" vertex="1" parent="WGCQ1PHkLu7HlypYQ9xg-3">
          <mxGeometry x="63.57692307692307" width="252.84615384615384" height="30" as="geometry" />
        </mxCell>
        <mxCell id="WGCQ1PHkLu7HlypYQ9xg-31" value="&lt;font style=&quot;font-size: 17px&quot;&gt;API&lt;/font&gt;" style="rounded=1;whiteSpace=wrap;html=1;fontSize=13;" vertex="1" parent="WGCQ1PHkLu7HlypYQ9xg-3">
          <mxGeometry x="30" y="180" width="320" height="55" as="geometry" />
        </mxCell>
        <mxCell id="WGCQ1PHkLu7HlypYQ9xg-32" value="" style="shape=image;verticalLabelPosition=bottom;labelBackgroundColor=default;verticalAlign=top;aspect=fixed;imageAspect=0;image=data:image/png,iVBORw0KGgoAAAANSUhEUgAAAOEAAADhCAMAAAAJbSJIAAAAh1BMVEX///9tsz9rsjxhrilosTZpsThjry1grihlsDH8/vvy+O77/fn1+vL3+/Xt9ehvtEGTxXV3uE7n8uGMwmzg7tjB3bKp0JPS5sejzYvD3rS82qu216Pb69KKwWmdyoN7ulOCvV6Xx3vL4r642Kau05p4uFCFv2PN48Jaqxl/vFpTqAClzo+fy4dHEDMlAAAP0klEQVR4nNVdh3LqOhAN6lQXisH0fnnw/9/3JBkCuMiyLdvKmXtnMiEhPkjaXW39+akb/d7qGp7u+/XW6TzhbC/uY7acBv6gW/vfrxOD1XR28RAkjCGMAej8AgCAEWKMELDdhKte209aAoPVcswo4cw+eKUCYEYoGi9Xg7afWR/94L5lhOEcal/AiJDz/Dps+9k14B8vkKC8hUtfTcToZbZqm4ESk5kDi61dkiVxZpO2eWTA5/TKLV6cJPVOfttsEhhMz0bovUjC7aLfNqdPrPaEGaP3JMnYxprdet3SSmcvCwieD21z4+iGDjG8fG8A4oQt8+svoentGePI2KnFA9k9IlYnvQgMLdsyXsMm+D056j1RYJRf4NW7P785Ai2ZszVoEI3GsDl+HSFzdvlGgP9vZopfd1aPflABw02eyHGRY4jgymnoAH4D4avysXqwA41Ye/09bXSDvgGoq7pEzlEHnQwQDDBqh58AQtkShy9hBxjYpo+2FvAJuM9SjhvxyVfepr7Xygn8BHLSDXIfylc1NWcWpi0voASgqSxcKd3BrRLBPWybXQSyTuqNCY1eg6Py/Aa31nfoC8hJ8NiJ3cX/s2lpghPUuJLPBoAx1bggfPlW/AnxpSzBhQ1H8APwS/P1OUE8lmcRlvRInmjblOIgm4/HE5qCK4orP0esnF/gQdomlAQb/z6eEDNoz+1lsZT7MgTX1siYT6Dta0N6/AQREfwQ25QVvy93dy3aaSpgJzJT72JzHsVXB/4VKXwP7t8sJSgoioVb8T0KzvJZB3ybontBgsOztQQ5RdD76YvwFn3ao2tc2PoeehapwSRAp+fyFWAv3RGKbVrI+u7bTVAEAISaP7+ed0RfR1IXtgqZb5C3EcfFKihi1lz+BEH6YcIt+RNT/XCya6UejIN9Ck9xTdQ3a+Z/giDefT20A/TNmqkl10E1gPNtas9RBwA9givrjO00ABa7KgZc6ROtyGOvvqCZScC4I79Ldb01tivCCDQpVMbcrNlpENz/DT2xSD75lMtHmn8NXvwJKUPTnDJ6+sL/E1IGpnuduL5Am9RX3ug6f0HKpG1RAaEvvByGm79wCFOETAShL3LcpsEf2KMAZl7l+zDPbdrPzZhsH5gplPqFG26uiqFr/x5FnirpVtwvoOL1q/2KgoyV/rSV2nDrAuv3aHrw6YMCU17077bvUZzvLrxg4ePPgPW6nt3yb/BHvogoayPv7Da4AZ3n8osOIsw4iAcLAxQfQEAr60l1EDs2ixlAc5OGnljzg7hOfeVos2cGYe2IhNCIJO2FvsUEAc3MM0kiUyNarCmIVyTvUMSE00zTnrViBqGCCQjbdJ/izNIlxHReNDjPqaTEoIZ2KntM3eI5MiKiTxO/drJxCTEdl0lV69EUZ03fQoKcX8myEuGsiQeDQ+tUBYJu6VRDF3fANvY9y8wZwMi9Qo6asF3YtwUUWKUqEPSqlXal6PyxPZcKTNi8alXXgMZ1/sgW3wUmyFVnrOuBy0385Re2QlUARKh7NVPnJETNl1+4dQ8iRgRu7+bqemRA/+PDWrUoZwBGjLDxMjBarx6wb1HTgh9fNB1gjEDouctrBb2QgdG357tbv7YXbRSwbKQgWilAhjo3d7Y8rEY1ld51+bFDb6dOXe4Z2RuC86GUdbzb2N3PT8fp4RBMRvU3xLiBT6tmb1oZAswYJJ3zeL5ccD5t9EoQBw+/PseuyVMoG12cN2Hgt9vQQ9jZv0E2c5IUMOi4oRVl5jLt5KV9DPlnMKO3ozXdEGQ8/+U0NRHU5qt3WVjVgYW+7Ta/uk2KiXe0rY8OX7dXGdS0qjZE1G2v6UrmvhG3padb2K2mKxCZmzdJ9JH52c6FZRptrEoxUQRn7Z6+jJyTZ863FOtVjiGGj5alyzVzDQ+/NULljyGAl9aVwzrTXhJansmAeOl7BXLMtmkog1HcofaGCFKgh/jqXO4YAvpojEc2Ztn16UP0LEfslnPmI2xDV67uP8VTCIUoHBmTUkYpGVvRW21KFbewLd+cuF/S1w1NNC8wAKDK7hIqHw4ixVgQgLYvYiQW/1Spso+oslSk1xQliFvXEU8AZXmM8JCSVYmLRVT1ZwOmcKd6WcYugp9hUUHzqtxsH11AMk02gYVguChss9lD8OfEiFKgi0AwOkrPaQGAjjUEe1CdJyvNNnSSS1mAILblDIpM35wsRaHp8Vz69/VBbZGioi4LIPVPSIabn3sRZUFNxL0MwQN55U3Csc83cpELPrPEkhFYss/i2FSIhAywFs5vXcRqGVsFX5/sNOAnBlC25HHymT0BkDViVFpiNO9yI1Ogtj/6ezSzSKUFhCSZTJJAXzD09BnmKJ9GIcruSf4HXpAhsWiPisiZRnMIwdDRZsja7gb7AdHMRG2SSnQLMcytd2sQspmJxhL2CzHMLhVrHAPRVltjCSNZqnsOtWqHG4IoCdFq0SL0oTbDXN3THMQh7MS7maViFGl8vSWs1qzPJA5Ue0uJqy+46DEk1ljcE3lhzyr5if0sv1uAsRZD3UYT9aMnm/cjPeND3IDxQ4th1Z6ZxtCNOj0QvWu4cF+gmRbDKg0ljSJqeaTbJkkE1dBJh2H5bouGsZceF+1mXsJ9waY6tyemoV2bwDxyfCbamWRBJNGw4Oecz1Cjj0YTWEZ+T6RTYykh3Bdk9bPOveNbogzDiCAA2jl/wn3BRUh+0l6x/md1YfoMcxYICol4BRxqlHPpqdeasXgSZPqB54GQS6j/c8xliC2YjfYiWOQS5z9bmB/yfN4ZBbWN4kWwQwvsJ5GcKAzY3MxLCwya1xnskCLPIoJrosyylxd7Yq3ffY8vgsW20wZLk+anmydLzUxUqID7aw0ALlRsIhIVpLGyzVGItKYH18X+9xgVvIaLlRdB7jyFaGKgQhW8uzSTYnpZhn5lbmJOeK1dUTp4NzFGBdtYy8CozC+9qtUFzmsMVid88LvB3n1mNSHS9aJmrTl1eYVbKxvE4d3qHrCiwWeRrvd8ePUatqgOZx8Zd0VUvYRofP0q51ZXj7bmze+uP2yR4nEvefiemk5dXNkWQ9/5eCxSPPgsk9meJrW6xrmlXfo1bYKVkHaS4NP9MlAeRCMjlApj8yn+UF44OwUiwvh+dqVVg4zNMtOH730eHLQr8Rayl9Bvvo3yEqzvFjGG8GseCt6WuZ/KBAz4smOVB7HcRIwKGK6/Hgc7ZWq7pZJ/e0H7Kp3ftNV2/R6ZXDJRUCY+s7eQXCs0YrPB3+7m+9PGJfPopGj5KOVWpnqrukiaxpV9i4SyqZ7yXvEZT1KaprCxbMSBGxuMWTqXVZaMok+3nEpfkKbCvyGMHRZ0LtlAIqpr/srNXCq2aUNm2yoxlg/tyroxo5zZr6FBI0XdTCPqohffoPwBywtxWecUu9jusrdpA8K0O4tvUL7Hyn+wkX6PJRCrKvRqj4+GOPnXYQVjMepQyr6/OVRI05rDh4dOcnQyyOpGroNobEXCN6FIFa41KfHgpUyZwJXkd1QElHDzqmxTVX1YJXQXnbQpGuhcRQUHcjumBD0VxUElB+7lob8EqaO9SbU948n3TOl8qWjOWkumgv+AqfwAraZ/p9FmpEljQdUX0nzo4rCD6ZdS1KkWjx1Eb5t6q1UUPCOzFb/+DGUNsSFuxTP/nK2SuiYThcKA5jKge+GNZH2WAFa1ECMxk3WpVdwSTTm+e9NL+umTYOeqp+E11iEj5Ua5iAbsmlF4gyz7UwRVzJgnnmMdMgsVFMZpbn1KHvzllmavnlhAr3rKx2v+T2ahwkq1iBV0Yj+YI4iUgVgMDTieX8WiIDtMpaiBAqhk6pcfjlGmaHm9ObwYOAVdD+QsoXrUWhmf2+iwR6qj9wQDRlKQ18/PUXndU4WhCpbmDYO7p8FONrgxYvfeX0aZsrJUWfasH+EaBKcdJeqT9wSmGzOeruXr0XNqCJWdXLQoDoPZlumxEwKmVC/rFLyHNebEUtWN5/Mo9q6zG9RlJ9ZvbSop8DdrKj+hQT3/IbvhR9dfbBzItNlV62Udx/ItIvMNTE/5jKlziPixu2BahF0HMLox5/6Zv8WHRjLsRN2QB6EvSdUdHeYOFyrFuodg4i0NZlaP3/tOyzGY0zYK/AqHUbC8dAptzOgNGF2bTAbsfQ4O10oMyx1UwgX8aBW6mMuUwv2VAYLe0mggJCAf+0fzIps/Og8Rwko0jwaI4Lthd8H8U4NrZ7nX0jaZrx64mw7yxIId+smLxkdYis05M54QP3x8BzsKOFvMDjvGDDqnGtJwp+h7rwGngH27NNZ2FzNyCesIfBycuEQs1ndlnTyKiEEKifKeHgOXLHB/qKWM/3pLeOsKJtj24/M8MNkEo95ocvQ0l1cevXrCx/0wJRhQOHEqZtoQ93cpDhoDu/nR8+o4egL+HKVsJFA87Sb8VDRfw5MHOSO7Ob3xoqaYY2+6TXeWl3HLb94nmXw7aoeKkTRcsqzragk9CndZcqCco+zy+rASAcQgwxWACXEP9RQrDlenc7Y7kpRztf7Ork627kvz52DG3GstkcZenttAs7Y7iVEkU1K8wYkmb5jRcQ2r1/WD497Lu7/g8iWgkZ8/JY4fC8UhuD6YmQ7zRH8wCcKZ6xEdE79c9uIT0nxLG5X4abkCIO5D/dEkmB7ve3e83t22XoTzbXdZj939Zj47HcNwujhcg9Vk4vsjjt4bo5HvT1bBYREu5+765jDIqWnezSo2yRM3qbSozOX9x8H6NBsDKuwdxp+KA3wBy9Ek0XASOZ+EA3Lw34DyHxVfQSjWi78BEr+vw+z151lFxbSgqarmMxEOoOI3YWMApLJhMaVpiQq2zL8Civnb2jj8S8bEDUxTMAJgpgr78F/iW5aMZAXMkO17iFsMPTtGJQJkzPoNYnvBjjl72DFo3vtf7/WwYgnRzaiR0Xv7cAdrKwiyqpkFcQz30i7rjmbEii0Kayj83PzbXm4gI1mrYQBacMazHha09SGJT2BUU/3AxLFiATvsVlsbzu7YgoGzgNZaTRcmigaaBkY19+nwE4UfzYKs628UO2txGXFKcnMNmLS2jOTSVJXZshWtj1CDfeN648a3KqD7ZtvGBYngVr38yK35jmMha07/M6eVbun9e0NGKmuvJ17vkZcba4IfOrXZt7E3p7VyBAwtjV50S2AwSwtYGuJHHCs6wfenTi36EVHPnmkMgasoFCkFwNjGho6Ub/RCL6fgoAg9BG+Lto9fCvxZxwRJwHdnXVkO1bGadfSToNOAGfGW1tKLMFnqpuknF4/AcS35U8YRpesXyc8EmEG0W64s6AWrjcEqdAGVgVwVUQCwyCbzNouJhZIlH8PJ4bS/OUSEh1EU3X1HhRnj3+9s3dPB/0tLl4rhaHWdLk/3x95dX15x/eMhmPSGDXD7H6I+843/kuBPAAAAAElFTkSuQmCC;" vertex="1" parent="WGCQ1PHkLu7HlypYQ9xg-3">
          <mxGeometry x="53" y="185" width="45" height="45" as="geometry" />
        </mxCell>
        <mxCell id="WGCQ1PHkLu7HlypYQ9xg-34" value="DB" style="strokeWidth=2;html=1;shape=mxgraph.flowchart.database;whiteSpace=wrap;fontSize=15;" vertex="1" parent="WGCQ1PHkLu7HlypYQ9xg-3">
          <mxGeometry x="30" y="59" width="78" height="78" as="geometry" />
        </mxCell>
        <mxCell id="WGCQ1PHkLu7HlypYQ9xg-35" value="" style="sketch=0;outlineConnect=0;fontColor=#232F3E;gradientColor=none;fillColor=#2E27AD;strokeColor=none;dashed=0;verticalLabelPosition=bottom;verticalAlign=top;align=center;html=1;fontSize=12;fontStyle=0;aspect=fixed;pointerEvents=1;shape=mxgraph.aws4.cache_node;" vertex="1" parent="WGCQ1PHkLu7HlypYQ9xg-3">
          <mxGeometry x="272" y="59" width="78" height="78" as="geometry" />
        </mxCell>
        <mxCell id="WGCQ1PHkLu7HlypYQ9xg-52" value="" style="endArrow=classic;html=1;rounded=0;fontSize=15;entryX=0.444;entryY=1;entryDx=0;entryDy=0;entryPerimeter=0;exitX=0.866;exitY=0.003;exitDx=0;exitDy=0;exitPerimeter=0;" edge="1" parent="WGCQ1PHkLu7HlypYQ9xg-3" source="WGCQ1PHkLu7HlypYQ9xg-31" target="WGCQ1PHkLu7HlypYQ9xg-35">
          <mxGeometry width="50" height="50" relative="1" as="geometry">
            <mxPoint x="474" y="81" as="sourcePoint" />
            <mxPoint x="524" y="31" as="targetPoint" />
          </mxGeometry>
        </mxCell>
        <mxCell id="WGCQ1PHkLu7HlypYQ9xg-53" value="" style="endArrow=classic;html=1;rounded=0;fontSize=15;entryX=0.5;entryY=1;entryDx=0;entryDy=0;entryPerimeter=0;exitX=0.12;exitY=-0.017;exitDx=0;exitDy=0;exitPerimeter=0;" edge="1" parent="WGCQ1PHkLu7HlypYQ9xg-3" source="WGCQ1PHkLu7HlypYQ9xg-31" target="WGCQ1PHkLu7HlypYQ9xg-34">
          <mxGeometry width="50" height="50" relative="1" as="geometry">
            <mxPoint x="174" y="181" as="sourcePoint" />
            <mxPoint x="224" y="131" as="targetPoint" />
          </mxGeometry>
        </mxCell>
        <mxCell id="WGCQ1PHkLu7HlypYQ9xg-5" value="" style="group" vertex="1" connectable="0" parent="1">
          <mxGeometry x="420" y="35.5" width="329.87" height="150" as="geometry" />
        </mxCell>
        <mxCell id="WGCQ1PHkLu7HlypYQ9xg-29" value="" style="group" vertex="1" connectable="0" parent="WGCQ1PHkLu7HlypYQ9xg-5">
          <mxGeometry x="-85" width="260" height="124" as="geometry" />
        </mxCell>
        <mxCell id="WGCQ1PHkLu7HlypYQ9xg-6" value="" style="rounded=0;whiteSpace=wrap;html=1;" vertex="1" parent="WGCQ1PHkLu7HlypYQ9xg-29">
          <mxGeometry y="25.430000000000007" width="260" height="98.57" as="geometry" />
        </mxCell>
        <mxCell id="WGCQ1PHkLu7HlypYQ9xg-24" value="&lt;font style=&quot;font-size: 17px&quot;&gt;REST API&lt;/font&gt;" style="rounded=1;whiteSpace=wrap;html=1;fontSize=13;" vertex="1" parent="WGCQ1PHkLu7HlypYQ9xg-29">
          <mxGeometry x="20" y="68" width="220" height="45" as="geometry" />
        </mxCell>
        <mxCell id="WGCQ1PHkLu7HlypYQ9xg-66" value="" style="shape=image;verticalLabelPosition=bottom;labelBackgroundColor=default;verticalAlign=top;aspect=fixed;imageAspect=0;image=data:image/svg+xml,PHN2ZyB4bWxucz0iaHR0cDovL3d3dy53My5vcmcvMjAwMC9zdmciIHhtbG5zOnhsaW5rPSJodHRwOi8vd3d3LnczLm9yZy8xOTk5L3hsaW5rIiB2aWV3Qm94PSIwIDAgMjczLjQyIDM1LjUyIj48ZGVmcz48c3R5bGU+LmNscy0xe2ZpbGw6dXJsKCNsaW5lYXItZ3JhZGllbnQpO308L3N0eWxlPjxsaW5lYXJHcmFkaWVudCBpZD0ibGluZWFyLWdyYWRpZW50IiB5MT0iMTcuNzYiIHgyPSIyNzMuNDIiIHkyPSIxNy43NiIgZ3JhZGllbnRVbml0cz0idXNlclNwYWNlT25Vc2UiPjxzdG9wIG9mZnNldD0iMCIgc3RvcC1jb2xvcj0iIzkwY2VhMSIvPjxzdG9wIG9mZnNldD0iMC41NiIgc3RvcC1jb2xvcj0iIzNjYmVjOSIvPjxzdG9wIG9mZnNldD0iMSIgc3RvcC1jb2xvcj0iIzAwYjNlNSIvPjwvbGluZWFyR3JhZGllbnQ+PC9kZWZzPjx0aXRsZT5Bc3NldCAzPC90aXRsZT48ZyBpZD0iTGF5ZXJfMiIgZGF0YS1uYW1lPSJMYXllciAyIj48ZyBpZD0iTGF5ZXJfMS0yIiBkYXRhLW5hbWU9IkxheWVyIDEiPjxwYXRoIGNsYXNzPSJjbHMtMSIgZD0iTTE5MS44NSwzNS4zN2g2My45QTE3LjY3LDE3LjY3LDAsMCwwLDI3My40MiwxNy43aDBBMTcuNjcsMTcuNjcsMCwwLDAsMjU1Ljc1LDBoLTYzLjlBMTcuNjcsMTcuNjcsMCwwLDAsMTc0LjE4LDE3LjdoMEExNy42NywxNy42NywwLDAsMCwxOTEuODUsMzUuMzdaTTEwLjEsMzUuNDJoNy44VjYuOTJIMjhWMEgwdjYuOUgxMC4xWm0yOC4xLDBINDZWOC4yNWguMUw1NS4wNSwzNS40aDZMNzAuMyw4LjI1aC4xVjM1LjRoNy44VjBINjYuNDVsLTguMiwyMy4xaC0uMUw1MCwwSDM4LjJaTTg5LjE0LjEyaDExLjdhMzMuNTYsMzMuNTYsMCwwLDEsOC4wOCwxLDE4LjUyLDE4LjUyLDAsMCwxLDYuNjcsMy4wOCwxNS4wOSwxNS4wOSwwLDAsMSw0LjUzLDUuNTIsMTguNSwxOC41LDAsMCwxLDEuNjcsOC4yNSwxNi45MSwxNi45MSwwLDAsMS0xLjYyLDcuNTgsMTYuMywxNi4zLDAsMCwxLTQuMzgsNS41LDE5LjI0LDE5LjI0LDAsMCwxLTYuMzUsMy4zNywyNC41MywyNC41MywwLDAsMS03LjU1LDEuMTVIODkuMTRabTcuOCwyOC4yaDRhMjEuNjYsMjEuNjYsMCwwLDAsNS0uNTVBMTAuNTgsMTAuNTgsMCwwLDAsMTEwLDI2YTguNzMsOC43MywwLDAsMCwyLjY4LTMuMzUsMTEuOSwxMS45LDAsMCwwLDEtNS4wOCw5Ljg3LDkuODcsMCwwLDAtMS00LjUyLDkuMTcsOS4xNywwLDAsMC0yLjYzLTMuMThBMTEuNjEsMTEuNjEsMCwwLDAsMTA2LjIyLDhhMTcuMDYsMTcuMDYsMCwwLDAtNC42OC0uNjNoLTQuNlpNMTMzLjA5LjEyaDEzLjJhMzIuODcsMzIuODcsMCwwLDEsNC42My4zMywxMi42NiwxMi42NiwwLDAsMSw0LjE3LDEuMyw3Ljk0LDcuOTQsMCwwLDEsMywyLjcyLDguMzQsOC4zNCwwLDAsMSwxLjE1LDQuNjUsNy40OCw3LjQ4LDAsMCwxLTEuNjcsNSw5LjEzLDkuMTMsMCwwLDEtNC40MywyLjgyVjE3YTEwLjI4LDEwLjI4LDAsMCwxLDMuMTgsMSw4LjUxLDguNTEsMCwwLDEsMi40NSwxLjg1LDcuNzksNy43OSwwLDAsMSwxLjU3LDIuNjIsOS4xNiw5LjE2LDAsMCwxLC41NSwzLjIsOC41Miw4LjUyLDAsMCwxLTEuMiw0LjY4LDkuMzIsOS4zMiwwLDAsMS0zLjEsM0ExMy4zOCwxMy4zOCwwLDAsMSwxNTIuMzIsMzVhMjIuNSwyMi41LDAsMCwxLTQuNzMuNWgtMTQuNVptNy44LDE0LjE1aDUuNjVhNy42NSw3LjY1LDAsMCwwLDEuNzgtLjIsNC43OCw0Ljc4LDAsMCwwLDEuNTctLjY1LDMuNDMsMy40MywwLDAsMCwxLjEzLTEuMiwzLjYzLDMuNjMsMCwwLDAsLjQyLTEuOEEzLjMsMy4zLDAsMCwwLDE1MSw4LjZhMy40MiwzLjQyLDAsMCwwLTEuMjMtMS4xM0E2LjA3LDYuMDcsMCwwLDAsMTQ4LDYuOWE5LjksOS45LDAsMCwwLTEuODUtLjE4aC01LjNabTAsMTQuNjVoN2E4LjI3LDguMjcsMCwwLDAsMS44My0uMiw0LjY3LDQuNjcsMCwwLDAsMS42Ny0uNywzLjkzLDMuOTMsMCwwLDAsMS4yMy0xLjMsMy44LDMuOCwwLDAsMCwuNDctMS45NSwzLjE2LDMuMTYsMCwwLDAtLjYyLTIsNCw0LDAsMCwwLTEuNTgtMS4xOCw4LjIzLDguMjMsMCwwLDAtMi0uNTUsMTUuMTIsMTUuMTIsMCwwLDAtMi4wNS0uMTVoLTUuOVoiLz48L2c+PC9nPjwvc3ZnPg==;" vertex="1" parent="WGCQ1PHkLu7HlypYQ9xg-29">
          <mxGeometry x="29.5" y="31.5" width="201" height="26.53" as="geometry" />
        </mxCell>
        <mxCell id="WGCQ1PHkLu7HlypYQ9xg-71" value="Subscription&lt;br&gt;info" style="text;html=1;strokeColor=none;fillColor=none;align=center;verticalAlign=middle;whiteSpace=wrap;rounded=0;fontSize=15;" vertex="1" parent="WGCQ1PHkLu7HlypYQ9xg-5">
          <mxGeometry x="199.87" y="26.520000000000003" width="130" height="60.5" as="geometry" />
        </mxCell>
        <mxCell id="WGCQ1PHkLu7HlypYQ9xg-8" value="" style="group" vertex="1" connectable="0" parent="1">
          <mxGeometry x="655" y="306.5" width="380" height="180" as="geometry" />
        </mxCell>
        <mxCell id="WGCQ1PHkLu7HlypYQ9xg-9" value="" style="rounded=0;whiteSpace=wrap;html=1;" vertex="1" parent="WGCQ1PHkLu7HlypYQ9xg-8">
          <mxGeometry y="25.714285714285715" width="380" height="154.2857142857143" as="geometry" />
        </mxCell>
        <mxCell id="WGCQ1PHkLu7HlypYQ9xg-39" value="" style="group" vertex="1" connectable="0" parent="WGCQ1PHkLu7HlypYQ9xg-8">
          <mxGeometry x="20" y="120" width="340" height="50.36" as="geometry" />
        </mxCell>
        <mxCell id="WGCQ1PHkLu7HlypYQ9xg-37" value="&lt;font style=&quot;font-size: 17px&quot;&gt;OAuth Authorization Server&lt;/font&gt;" style="rounded=1;whiteSpace=wrap;html=1;fontSize=13;" vertex="1" parent="WGCQ1PHkLu7HlypYQ9xg-39">
          <mxGeometry width="340" height="50.36" as="geometry" />
        </mxCell>
        <mxCell id="WGCQ1PHkLu7HlypYQ9xg-38" value="" style="shape=image;verticalLabelPosition=bottom;labelBackgroundColor=default;verticalAlign=top;aspect=fixed;imageAspect=0;image=data:image/png,iVBORw0KGgoAAAANSUhEUgAAAFoAAABaCAYAAAA4qEECAAAAGXRFWHRTb2Z0d2FyZQBBZG9iZSBJbWFnZVJlYWR5ccllPAAAAyhpVFh0WE1MOmNvbS5hZG9iZS54bXAAAAAAADw/eHBhY2tldCBiZWdpbj0i77u/IiBpZD0iVzVNME1wQ2VoaUh6cmVTek5UY3prYzlkIj8+IDx4OnhtcG1ldGEgeG1sbnM6eD0iYWRvYmU6bnM6bWV0YS8iIHg6eG1wdGs9IkFkb2JlIFhNUCBDb3JlIDUuNi1jMTM4IDc5LjE1OTgyNCwgMjAxNi8wOS8xNC0wMTowOTowMSAgICAgICAgIj4gPHJkZjpSREYgeG1sbnM6cmRmPSJodHRwOi8vd3d3LnczLm9yZy8xOTk5LzAyLzIyLXJkZi1zeW50YXgtbnMjIj4gPHJkZjpEZXNjcmlwdGlvbiByZGY6YWJvdXQ9IiIgeG1sbnM6eG1wPSJodHRwOi8vbnMuYWRvYmUuY29tL3hhcC8xLjAvIiB4bWxuczp4bXBNTT0iaHR0cDovL25zLmFkb2JlLmNvbS94YXAvMS4wL21tLyIgeG1sbnM6c3RSZWY9Imh0dHA6Ly9ucy5hZG9iZS5jb20veGFwLzEuMC9zVHlwZS9SZXNvdXJjZVJlZiMiIHhtcDpDcmVhdG9yVG9vbD0iQWRvYmUgUGhvdG9zaG9wIENDIDIwMTcgKE1hY2ludG9zaCkiIHhtcE1NOkluc3RhbmNlSUQ9InhtcC5paWQ6NTQ2QjU3NjcwNTI1MTFFODgxMDJFNDk2MjE0REUwRTUiIHhtcE1NOkRvY3VtZW50SUQ9InhtcC5kaWQ6NTQ2QjU3NjgwNTI1MTFFODgxMDJFNDk2MjE0REUwRTUiPiA8eG1wTU06RGVyaXZlZEZyb20gc3RSZWY6aW5zdGFuY2VJRD0ieG1wLmlpZDpBRjRBNzdCMjAzODUxMUU4ODEwMkU0OTYyMTRERTBFNSIgc3RSZWY6ZG9jdW1lbnRJRD0ieG1wLmRpZDo1NDZCNTc2NjA1MjUxMUU4ODEwMkU0OTYyMTRERTBFNSIvPiA8L3JkZjpEZXNjcmlwdGlvbj4gPC9yZGY6UkRGPiA8L3g6eG1wbWV0YT4gPD94cGFja2V0IGVuZD0iciI/PvXfzsMAABwlSURBVHja5J0JuFXT+8dXV4RQKmVIRUo0iEokQ6l0iwYJlUqZMiZknmUMmYeMGQqPmTRIA1JKXRkKSRpQUolI4/6/n+W++1lnnX3OPfuceyu///s8+7n37LOHtd/9ru9651PKbEV0ww03bPfXX3/lL1++vMPvv/9+oPyttnLlyl1WrFix/Z9//rnN+vXrS61ZsyY8fscddzSlS5cOKlSosEG2v8uXL79q1113XSxbQbly5cbttNNOY2+66aa/t4ZnK7WFGbuTMPGcRYsWnTJ//vw6c+fO3fnvv4uPL9tvv72pX7/+in333bdgzz33fHGXXXYZJozf9P+C0cLcCj/99NPN33zzTZeCgoIqIsFJY6hSpYo58MADjTDIVK5c2VStWtX+rVSpktlmm23MzjvvbNauXWuQbl7Mzz//bJYuXWrmzZtn5Lrm66+/Nn/88UfSvYXZG5s0afK5XPfBIUOGDDP/i3TZZZedkJ+fP1uYhEQF7rb33nsH55xzTvDKK68E8hKCXGnjxo2BMDsYOnRocPLJJwcCKYF/z7p1667u27fvk/Liy/9PSPQll1zSdfr06Q98/PHHuwsPwv177bWX6dGjh+nevbs56KCDwv0i4WbGjBnmyy+/tNL5ww8/WIkViDGrVq0yq1evNjvssIOVbMFgpNTsscceplatWnYWNGzY0DRo0ADsDq8pjDfjx483I0aMMK+++qoRvHdnz6a2bdu+XKNGjbMFVlb/5yT4yiuvbNKqVat5pUqVSpCk4447Lhg1apSVOkgWuOCDDz4ILr300kCYFOTl5SVJX9xNFsmgZcuWwe233x7MnDkzQdqFycGjjz4aHHDAAQnnyAtbf/bZZ9/7n2GwTMUdTz311Pd4WH0ImH3KKacEX331VfjAU6dOtXAhGkJGzGvevHlw2GGHhZ/3228/+2JEuos8VzA5uOqqq4IvvvgiAV7eeOONQGZTwrGHHnro8ssvv7z1Vs3kiy++uKdM4X/cgbdp0yYQGAild9iwYcHBBx8cW0pF3bObfp44caK9psBF0rHsQ+2Lus7+++8f3H333cGyZctChj/77LOBQFl4TNmyZYPevXu/sDVK8XYnnXTSBMHNcLDVqlUL3nrrLfswmzZtCoYPHx7UrFkz6cEFZ4MLL7wwuP/++wP3/EwZLdiacNy2225rjxNMD1588UW7GIpal3Q9Uf2C/v37B6Ja2uuIlmI/u9B15JFH/nLNNdfstVUwWabkgY0bN17hPgSMAwsVIg4//PCUDDz22GPD6fzwww/nzGhe3NVXX50AE+vWrbNSHHVdGM7xMBqaPHmyhRoHdtYOHDiw3RZlsmgUp+2+++4bnAUlGDdunB2waA/BBRdcUCQkdOvWLTweGjBgQEpGi84cfoYhUYzW7a677rLfI9XMLF5+unGgYr799tuhdLOm6HcyIzZddNFF528RJp9//vlXC5aFOnG7du0CMZlDKa5du3ZG2AtjoT59+gRLliyxmNmpU6ek4xTnr7322qBXr16BGCyW8WXKlIm87pw5c+zxQFiqe7dv3z6oWLFiwr4zzjgjnI333HNPCCUsuueee+5Nm5XJZ5555iNgIQNgIIMGDbI4DD3wwAMpF6Ko7Y477rDnjRw5Mvj111/t/zBQ4CjhuM6dO9vF1KUrrrgi8pq8ZOjzzz9Ped86deoE//zzT7BgwYKkl4Xqpy8KKVcNimfu16/foM3CZFHJ7nLfsk43Bn366aeHg+UYkfrg008/Db799tvg8ccfD8SMTnrgZ555xp4vxkjw/PPPWymCxMgJtttuu4RjWUzlJQfnnXeeVe1SMVEw1V5DDJDI71l0mXWQLHZ2H8yuUKFCeIxYsMHo0aPDGaoLKswWSLysRJksD3ijSnKlSpXCwYKfskInPMyTTz4ZLkRskFh6SXrve++9Z78T6y5BPfMNnTibqJnWlG/UqFHaF7FmzZpw4bv11lstdB111FHhcczMp556yh6L4aPMRv0TA6tbiTCZC3MDbsSb11V96dKlSUo/erJKAn4GjBIxwe0+sb6SJPr6668P9AUW18aLinpZChkbNmwIFz6gj89i3gf77LNP0jloQ/o8ygOUALF+Dy5WJov601A0ig0KFyrJ6KBRurEsGvZ7zGoXY6HBgwfnxEAMDjHtY60D7jZlypQQMtq2bRssXLgwxHygLtV5jzzyiD0GOFGhaNCgwZ9YwsVmjIiErtIbvvrqq/aGLFz16tWLHFSHDh3sMZ988km4kAwZMsTuY1UvihngJeqWGEEJRgzXQusQEz84+uijfdM5aNq0qcXudLDTokUL6yXUF6WL8YQJE4qEqxdeeMEeyyx0nnVmsTC6a9euE/WiPKRqBa7fwd9YxMBjCKxUmInCaBcP+XvEEUeEGsduu+0WyPS0zFYm64tjhiiz+ctnfRlIKy8LxqWTfO4DZAAfUZDhb0jypEmT7LMAN7pf1q7rcmKyKOn9VMNo3bp1qMIhUUUNqnr16qGXjsXw5ZdfBtdSHo8ejYHjq3Uw+7rrrgvEOErSQmCujDFksiv54D7n+XqyuzED5s6dG5x11lkZQw9KgMKN8qFKlSob5OVWT8fL0unCTDJV7hPmmnLlyhmZLkYkxIiebF566aUiX5LopyY/P9+IFBj80CI5aY9ftmyZjagQOXEJ/zTn44PGr+wSPmphlpk1a1bCfq7BOcQU3RijdcDLM6hfXFRP67uWxTFj4fvtt9+MQJqRxd2IZmUKCgqMqK/bfPbZZ2Pl6/1jS7OYoON8XVcuWizaAVoLC6Z+7tixYyjJYHj9+vVDyURVQ5JdGFG3KZadDyN8z3Ec78MN1xUoLBatBv+I6vs6pv79+58Vi8mXX375YThbFP9UH/bVuFw2/MlARffu3e1C5pvBTZo0CZnswghMRNdF8/BhhIVOmaz7WRO4DtfLZCHOdANSYTKkfpS6dev+JUhQOmNGt2nT5jvVRWfMmGEvdvPNN+c0MB9f1c8Rpe4hgQJPwSGHHJL03fHHH2+NId+lyufnnnvOzg7/HK7D9dxghMuwbJ8JDQe3AC5ZgVe7T/D+gUyDqO31ITCpoR9//DGjSEY64wHprVq1arhPJVklW/czYJlR9sW4MKJwgST7MMJfFkXO5UVwnJ7D+VyH6yHZLrPRm3muXJit+rVIsv0s2sta+X/7IhlNnE8H//3339uL4MosDksNAwZm+3ChzIZRqGau9Cuzlck+jHCsMlm/4ziOVya7s0qZzf24b67PhRaCt08WyUDhVu75WFEB1YN1sUN1gQjb5+J38JmN0o/U+d9htr/zzjuREAO8RKlgqIv4ml1nkG44n1TKfAh77bXXEmZKrhtBYKhv375qvabPAurSpctkPRkNAyIUlM3NMRSwEN19SDK6q0q2CxdIMu5JP1gAvuJTJnLCNEdqdMPvgB+FCI6L2VisWJUq2e71uD73YQzuLGA8USGvTDZ0dQIXOJ6cKNOlqfTmXUQyUFSDZs2aWSbPnz8/bRyvqA14gLkuJvsw4sOFi9kwBIsNVywOn6hEGaxNVEWghLEqk30Y4X8cWgoX3I/7cn/GwXhymbmkMEC6gB955JE/RTJaxP5x38XpOoVyYfZDDz2UpMLxUDzonXfemQQXymwkGRdsJkToCvdq1AyE2XzvziJlNvdnHLnCIy8Y4npqrl911VW1lb95+o9YNta/SvaPGCtG1BYj6lL81KdSiclPwjSbecRfl2Sa2mOXL19u8+r8c8aOHWtk0NYqzdCNa+SlWEuULCaXatSoYb744gsjzEjYz325P+NgPLnQV199ZZ9T1jb7Gf4tXrw4MRozcODAtvpmdBF8/fXXs3qzuB4V+1y4cGHEhQsXRvR8JBA8xnkVh0Q1tTiLFqKQx6LoXptNMZkFlvu7MMJ3J5xwQlYSrvFPjKNCN2pipqVMtw/0YJw/EAHQbA0TBs0D+nDBZ/b7Kpwy+7TTTgsZQepYXJJZaRkNw4gn9uvXLwkuuD73YRyZjjvTjYi8q1PzXAIfdULoEH35EP6WKVPGtGvXzjpvRo4cmdUUElPdLFq0yDRq1AhnS8J3fGY/33OcEk6e2bNnGzH37RQsX768TYCMS1wbRxIpu6TzykJqfv3116Qp3rhxY6Z10rhJ+5XFLGncmZIYdjZlGGeaPtfSpUsvC710avWRvgURdsp2UVC48KejCxcujLhTGgnAwGA8mLXZEPCBlhGl0bBPJdmFETY0FRY0f9xxtwcffNBqQ+qePeaYYxZaRguu9PEV71TR46ISUHyLTwfNdz5cKLP9By5UjbLOjQY+3MRJZTZqog8Xem9lsj/uqKh9URvXgsB5jS1aRvfp0+cpPejDDz9MOCjORgoAuWv+fvTb999/P8GjphuLlhupKMwKCoOh2ZIfYMDqJHM0yurk/mB51LixVOP6QQh4QITIdB8pzHkrV66sr2oZSdwQakockgcw06dPt9gmEhLuRzUTI8F07tzZ/nVVNY777rvvbBABR7oSAYJOnTrlpGr17NnTrjeqKh5xxBHm9NNPR7uyY1XivtwfbPXH3a1bN5QEi/txiICH8NQGJJwARTdTaMFY40CDrnGl2Z2qOh19fOQvznL2+3Ch1hxKvqYq5ELABxgZ5RnUMZFb58KFO25XPcwm2k5QmrRg/dy1a9cJVC1RZ2Az5DV3IVdrsEuXLjbn2J+qDB5Tle+jnEo4m3SdyJVY+Igz+veBkdgIUb5uxsX4cnE7uNFyrZ3BI5pHDR/iLQuWFXNf7cmE3HoRpl2dOnVsrYi8vITjWrdubQT3bP2KCyNMZ9RK4nAnnnhisUTvqY2ZMGGCkUU3YT9wMXjwYKuCuTDCeBgX42OcLmFtxqGFC/9VNKirKYyH7obpaTNCcbZDJITHfYO9e/e20uvDBbnP6kN24cJ11OsKj3dO4as4SI0XVxNyAwnuWFn4MJhUkt2xMn7GFocfqJiQxjTlBa43uqpizbhWTZyNhMBbbrnFhvh9uECnpX7EV+F4KExWzuOhycPguOIk1T5gNtqF74PmvrfddptluA8XjJfx+G7WTDZSJyAEsPA+m/JIJ1CrEPLD83EcSVEpBTipsLr877R8jXI2iCpXwchiTWUTU9s+F6kKlLzx19eWGJsIW5IjSq1FxhiXcChBWLiFKROWQQkpW1G6cFEb0w5JdtMD/CnohqJc6wtJQgIICWmCTnHCB1KtkuzCiBt39CHPTV9g/G4hUSYbAeIIXv77zxNPPJE1o124UGajQfhwAbPZ55u4nE+gtCSIcg/fRYDDyg3uuphN3oef1xeX0VQs+LzM0ymj0BF3hdUppoQzZ/78+UYYbatVXZo2bZrVKubMmWOrYJXKli2bYLQUJ6F96LNBYqViDZuJEycmZD4xHgwXeQlmypQpCddYsmRJrHv6PnSeL09wZJN6tVxciUMyNRMsPlKyRIclcT1UofiLZcaGsx1rUYl1QgynEmE0jnhltMCFEc3DegZJP3NVP8aDaksAwbUg8QZSAh2HVFh1vbMB75o1a65VBzlE2CkudJA5REoXU9KFC4UR1CMfLjQDFGcP/uGSJIwXIuU+XChmu5jswggGByllcYMAnAtp7LJ69errjFhkv/NBprT9csSIEVlZQwzI946xMdixY8dGZpLizGnQoEFYB1NSRCkFTI0yp++9995IpxLjxRmWjbtUk2q0TEOs0JV5FStWXI54g6uuNROHsATBPLAMp7qrPskiZ3r16kUll52GSkxbMjNxtvuWWHETMdBRo0YZWZwSYprAxVtvvWUDBS6MME7Gi3MKizUuKdQoT2U2rQgTzcmR0JqOuG/QLfRB2yCZXLOCVCLczE71RTMlqU/cHISEVqlSJUwr8OFCYcTPQE1Vx5huo7kAdZAKOWIffGwKk/LsDk2wdhmXzYaKRKTBTyrk82OPPRaWyeH1o7J1cxBmMUwDr0lDPuaYY5LGzbgYX1QyZKYb9yDxkQJU3Sc8fhCtY7Qb04PUL50NARc4ZyZPnmyaNGmS8B2NS1CdaN2jSeLt27c3m4NU+2BMxEPxM7swwngY19SpU5PSEuIQ5+Jkwz+vJDweVVpuMA49j8x6biLWmxEQt5gWhzBjuQEq3dChQ60+DQYScJ00aZLFbpm+ZtiwYfah0LPpLJMub+OTTz6x6hgZ+TCFl4h5izrI/+jBbNgCfB49erSpVq1aysAtvZhQ4WACTEUFlcXQmub6P+NG91a9Py41a9ZM82RUh2aGjLUfmjZtukzrVLINztatW9f6f/1pBxaSiuUnNqJuMU3TEQnerqaAakb6F8mElMGZxA4ywX333Vek9qEZnxqsReWj1sUfN/kt2UDIu+++a++lZn9h54d/0w1EeZ+hEoTzh+mFlMchrD3C634NCqkFokcm9DFSZb5jx45pr4lP23VGIb18pu6E+hW/1oWeSUVpHziv3BoYeeF2lvjONMJ5cVvDAU0tWrSwHcvoCVUYSpsaHjBgwIDexmvP4LZRyHRjmrhGAUaMSrK7yrMaUz6cjmbNmmUdTW7FlfqT3ToVdRCRMIMEFtVlTBd6V7vwkxzRf7NJvFcfBzXtuk9m+SluJmmeqD4bC7+wB1O4mW1iNkxAVfLhAqax2pO6W1TIilIOHlYtSD/7X5lNybG+XPzidFdIR6icOIlcFU5hBGYzvlQ15EVtRM0hjL/CsriN8DZB7EWf/VrzM3BXkvemdc9xN9yEvFXfmY7E0OWArE/idukIBhqnyQkMirLeKBl2rU7qStIRRfQwIioRHZOZ8WXzzKwRFIeS/aq6d4cOHQqSskkFp59UTEX7YCXW1Tcu4QljFcc5o95BtAZZyIxIktVQuE8qkukfxt3QOuSl2Xo+1xGFg4gUAnkY+5fPqqKCkenieWPGjLHakJvhymfWAJxK2RDaFs/KuqLrVM2aNe+LSkTPk+mz3i0ScpXubDa3zoSwlZtEQ/MSv9GJkmbj42yqVatWkiMqqlhIMZvkda0B9ImuBq4xpnUsbolzNhszf+XKlQmZpMLk1FWiNv+gsKGTdoMhwJoLs6Omt2YkEd7XtjraTYxwP94+pnjU9E4FS3xmPx5EHpy2by7ReCU/Pz8p0MpaQZZVLs/IC4MoFdR9PXv2fCUlo0US6mm0hFVcq/5zKQ7yFyz9DkklgQXJRZpIEyadihcAM2Gyv2AhsUQtKNz0JdAt6ERH5zo0PUHnxiXAZz+XQyUZP4erX8d9RurJXU2NYKzwskparBGJ+FbVH7Hc7AWQklymlR+j88vSmG66+AEXWmfiqmCcj+SpCuZO91QlyjCPPEJdnLgv1/fPz2VDs4JgtgqSqHlTiwR1sv/1BJihQc7iKIHj4bHeokrZeGhSAvzaP5jM9Ebr8McAs/jOj/Exfqw9vvOtO67PfYqDyWzad6lHjx4qWJvc2pUkrUNp8ODBo1u1akWJsu1ogIWDn4BVNVeiLzRxuYoVKyaF99Ea8H3gkPLjbWgR+Cn8dAH24fPFuvMtNLQcLDvfwuX63CcqvSAu4RMixjhz5kwzfPhwVZM/lBf8XUYXkDfSVC0javhIrEY/TNdvI1OJ9mHEXf19GHDhwvcTM2W1I4LfGEWP4zzO1/u6x2XbKsidNdQVsoBr467KlStvFGyOF2A89dRTx+pF1dqiN11xTDeX2aSG+XABMzAqXEx2mYi24jdQgYk4gnzHljKbBTaqID/bjawsNYAcv/N9sacFJRcauMW0nTdvnr1wVIZmLmUYlB/7qlo657xmfEYFFRCIqC6QXMdNxTVeM4DZs2fbWm4EybVITZoWy7TVWLx4cVgeXegBzY7oPapTDM2A8Axbun5KqVSgVLXXmqusTHAdPH64SeHChxE3Q8p1ZKn7NlWPahrDQlTlqsFBXrOfdOPbBWhjQAZuZVXngNtcA5vvu6lf2usuVfPVqI0VmYGRNGjSdKUhYo6m48KFMhvpd+FCm1ThxPIbqPBSsTzT6cbo7IyJtprcl9wLenpAJF5GncO6pc1QaEiYE2REQEjpZs2aLdWLYn1B9O7kIYtiMgYJLwbSzEyKcOLUhqCmRaUEwCCYA7TFhS1tGYfDyjjNrCCS6E1EEwH1zo0ZMyYcf9u2bb81xUV0wKLhhymscdaiItqsFcVsXUjVwkRaafKHbh4nCMx9XQnlQTO15mAScOJ2L1AvH40FtPrqxhtvjGwuy700i58ZoNeRmbOaZgXFGtwUQ+ZoYepG47XMTMdsejBpa0po/Pjx1s+sjbByLWHIdKMtnFvqoBsJMorR2gQGxrvHuUzG+lPhwNdMtVWJRJIHDBjQXX9HBea6jQPdLuIqudqPFEl5+umnE5w8qbqk43nD75FtNzIWK9YSUoQxvfExa3t5X3dGMvmtFhxOOLdoj+8uhGDym2++GTJZs0rhQULkpCRIFp6+LrOBAK3mos+H6+MgZ4Oppg+oiw1tKkyKn/XAlYmqlQrD8b717NnTmti8ED84wcKr3Sbd6lvUsTgvjGQb7WPqzloW3ZRNT4qbUPsURnjrGi1B9fN7fCgjqLrCwuThU0ENCZIQvUNTSavbtBUiK8iP72GgKOFbnzZtWsLvAxS1ob7qfWi7rJjMfTYbk13MlgVyncIEtSCasU/Sos9MXJWkm0VpD27CYbpGsZqlyfUJoMJA16HjblidCmvgLp3OMtH3SUnQftc4wHRmMds2O5OVxGjYR97+Mh0oCvwvv/xiB8n0dzukp1PrsPbARsX8VH35wVNIrT9tnwyMmDRt7SGsv3RMxj+u2hS/VeDWQuLDYH0yW5Joe0zTKzUy8GEw9V1NI6p40i1bcAkNgLKxqJIzTZBRRisep+tJjbnOTIvSjRXa0IRYGyBSjN1SCjHJ/6azpdlaiGmlKQumsLGJqkw8KA1X/OwifVBghRoaprgSDPKPBZ4Ud908inS/34IARNWgFP4wQhjcwG/h57Lk5+d/vbl+HS42lLRp0+Z7N7OS0JM+DIsh+JouDoknj8UsSv3T/tUa4yN0lcqSM2nq1sks1THh40Ci3RkkdsKmYjGrS5poXC04u844v96D148FSYnGhTAuTjdFyjDwxKmuy3Upri8qqwjDiBlG71J+QEFxmOJVP6O/ZcuWC7Q9z3+CmHL0anL1XBZCYnioTPozexo9xp+hEezisAZZUIkP4pthYVYIwxUAtvsJ5nTKLUmtosR/OJIfYpg5c+YIMXfruOVmhK4ohaM3h0BJWMlEEiOt0+ixRDIMyZOUbNBqjU0rbSGqWgUKbHiKpgG1a9e2Odiis9sflNTrffTRR0Ygy5ZRaLmDEr9WJ7PkCTn+4pL8PdrN9puzV1xxRXNh4OMTJ0480M/cJK5HXjENTJo3b24Z5ccBMyVeBPnPJLyTDE+GLC/Iz+VGLW3YsOHD8sJv2Rw/+LvZf9wXT+CiRYvuKigoaP/ll1+mzA2G0RQuIaX8qC8NAKmB5C+MQlJVykV3t6ledLTRVLIowttWr169ydWrV79GdOwZm/O5t+jPVYv11khW/4ELFixoLovjHoKlecV5fcHp9aIHL6xatepEMToeFuYWbKln3aKMjoKXVatWtV+xYsWhIql7i2ZQSf6WlX2lZcvTrgFK+CDIoxDN4x/5/y/5+4toEXNF8j+V7Y1BgwbN21qe7f8EGAClzlT37wCCGAAAAABJRU5ErkJggg==;" vertex="1" parent="WGCQ1PHkLu7HlypYQ9xg-39">
          <mxGeometry x="10" y="4.578181818181817" width="20.60181818181818" height="20.60181818181818" as="geometry" />
        </mxCell>
        <mxCell id="WGCQ1PHkLu7HlypYQ9xg-40" value="" style="shape=image;verticalLabelPosition=bottom;labelBackgroundColor=default;verticalAlign=top;aspect=fixed;imageAspect=0;image=data:image/png,iVBORw0KGgoAAAANSUhEUgAAAYMAAACCCAMAAACTkVQxAAAA9lBMVEX///9ChfTqQzX7vAU0qFPA4Mjx+fMho0cWoUE9g/Q0fvT7ugC80Pr7uABsnPYtfPPqPzDpOirpMyHpLBfpOyusxfknefPpNCJtu4Atpk72+/jpLxvoKRJvn/bt8/72+f7Z5PzH2Pv3w8D51NKhvvl/qPdbk/X+9fRSjvWXt/jR3/zk7P2NsfjzoJv//PXtYVfrT0N6pvf73tz85+bwhX71sa3veHDvf3jymZP4y8i3zfr0qKT+9N7xjoj8ylb+6Lz80XD7xDvsWE38zmTubWT93Zn946z+9eH925P+68b7wSn81oX+79L2u7f94qj8xkC838QAnC+mfQYyAAARoklEQVR4nO1daVviWhIWnDtzE5YkgGRmAIkKCIiKuKE0ytVu7Xbrmf//Z4YsQKpOnSVI7B7J+8kHQszJm6pTezY2oqC+7TjdruMcbEf6WYKVYHuncdLWy4ahuzCMstZqbnXrv/qy1gb1bDM1vfealgpD06ZctDvdX311a4B6Nm/o8O4jIpoJDbHCaQoImPFgpLbWSSn98c8w/h7zf+u2yjICfOhGZ31Y+OPPfy3wZ7wcdFuGGgM+C41YL+Y3wh//+NsCsXKwXYvAgMdCaifGy/mN8GEcNBS1UBhGbS0U0gdxcNDWIzMwhaavgyh8DAdbSwiBj3Inpkv6jfAhHNSWEgIfej6ea/qN8AEcbKeWFQIPWuqzx5Li58Dh+mSaGygq61PX2HDDRvzDnBgu6zdC7Bx0DY6O0cv5RtYJnvH6Qfe61y7TPJSzq7+s3wlxc9Atk4+2keo47MH1bJMQh/Jnt41i5sChpEA3mg73F9dt5Mp9egpi5uCAoECThYK6LWOtKIiXg7rGKBat3JT7vjspfY0oiJeDFkOBnnKUftkJtpHyOqQS4uSgybhm5Z7qbx1PhNaCgjg5yOLNQDMiKJZ6S18TCmLkoI6lQNMOIp2guSYUxMhBHm0G0WMO0Sj7/0VsHGBNpKXWIhewDGLjAJtE+mePvC2PuDjooN2g7Kzs1J8OMXFQR2Ei43pVZ/6EiImDHiqha67qxJ8R8XBQxxvyis77OREPBw24G0TxzdYQ8XCANNHnTwm/C7FwsAPFoLwuztaSiIWDGpAD7WQ1Z/20iIMDtCMnYiBBHBxkgSrSWis5qSpOr84Ph+Px+PB8d7DsOR5/PHx/nkyen7/dvhwteQ4n2+j0ep1G1pHGaKJwMNgdDcdn4+Hh696+6LgmUEX6x1VF7B0eFysF27JKJcuy7UrxeLgX9RyP324yuSkyLtw/Nie3UXlwGq2y12fkdrTo5VZDrAlUORi4y/NW5y6vUu0LVgetIj3iApbFYGxVLDMNYE4/GkcQh6NvT9O7vwngMnFzq36OeiOF2ly0KQ2Bdd7J1+bIzyx2JQ72R+kiWt50dekRLQ0wkf9BLvLVcdFKkygVj6/UzvE4YQiY8ZDb/KZ2jnrPoAo7NaPluF+feMLhw5gpCAUO9scV26RWZ1eG1PHX4CI+RBUNjivkFQbPS+VOQSUdTTgE+Mhl3hQupMHtsdC8PO6JRtwZOQeHFc4DNoVl7bI/gLGi8gfErMdVAQMeC9Uz2TkehAx4LDx9kZzDSYmKm/VWfTkOBn1buLriJfMTVE2hchPfhUGa/5AsnhZTKApHNzkJA55GEiskWZuLlgLmiioH57InLG31T9FvoGUa+3Ygv8RAFEb8c3zZlAlBIAo3ggs5kVb4a61WWC7UOBgXFRZnQ8MDpg70rWXuawQMFS7RR2XMO8cPqR6ai8IT105tKTRZ0Ea7kIMLsR6akVABJECzKO5mpnFFlYJ0usDqTQ+3CnpoTsImh4R25CYLJQ7UKHCfsLA66kKzyJHfx15eHS1Y7zKMQMGUBHJn/hGBApcEcg1sSeFKOBirUpA2zZCnAIOmhoJZlA8ZzTLooGv5nFREplkqmeQmUTlk//sjSYHnJpMaKvMXsQS628u74vdw8Eqtr2TZto290enHx4vfwWiRoVDRgiuRRNDC1ZJ7VfYKrUrh7mI8vrgrMF7zFFXWXSO246ln/HQzmdz/zFBOW27CnKPBUqDpRirf7DXzGm84hJyDU3Z9U9f4cvT6ej78ahfQ8gqLB+w6Xg5qoR8y99gspA/nm9Ng1Gc9Nxv79vfMTc7lJj9mSv/x4SfLQg5HLhym0UUr17IzDXCwhVsqVDm4w5dvFYaLvffqaxF+X51/hziQUxCNg1AU9hL7BXYfuYxXdwV0SOkCHsHsx1MnAO66j/cMCxm0L+Omx6lPDFVwl2rPlnIwQhdvVlFcYtAHd8C8m30Rry4K+XxYE5lFwgM4x6JQhNoI397cPWv3vGB1lZmA77Em0ttsnLTB9oTJONhH9oZ1hz2x6WMI9uzCefBxNvqeHIWDRRi2j6KIafYSpzjtl9Bh4W+fkRjkHsgrvMeHhaMW26iIRCfdUoeRBBkHQyjmNmlZQ11gB58iu0ghibYcB7vwMTH7vJzGHSSh8Lr46gjf2x+ccyCuMmF/uYli9ZzJAgeYBAkHSAxsTsQLPIl2oAkg4bpC/fpyHMANy0zz00p9dOTim+85NQo2NiboyMf5N0gMdG6bC+6PlHAwAmoG72Nz7MHD/A+Rn6wQul6Kgz1oOldJReQDPVGVxY4A9bwwJPcXODa0I3SUM7dbUBIkHKTDTw7UoCFcXYAHrBAYJTBepDDzIxIHs5K9M6Bh5rsRCai2zPkjBY2ijCggh9VWbv4F0kQiG6QVIV40ANdcJKO++6M0MjnMwFGDt0yhvisSB+3gR0AEF1YZja/gSisztQV9g5w4bfwNkDD3EeD2Jw5RclQEyQHYkUlNtHdZZCMZRV8fwOoihXRyXhcDcBrI+hWwnSuSPNkAKK6ZwG5AMXiWXCawUOfKqBklWwJujZgDsIkV2Zz4+V0R2ho+LD843IhqGGW3hLhuhzkICsbAYyITAyQIpSCIDYN1EjHAgpAJPoUPnCRSD7ZlIQf74afGPEbnOR0X6PSyaVe9A6JIpxKAHAT7C7CK7FfxCaY7Qlhqzb7/IbCKxLuBC7gjBJYRVC9Sj1RZFwE5t+Fut8urXyhV+sGR22BTfn+JFyjbm1EKfOSKsNzJA9zh/ONvwsqFCQKxoI4HHikIZpHoqOYyR+G7HM4NnB4ywboAVvFyoZLbq03qg4REkBMCVoNcFSFlFGwf0NCRF3K9Abnxt48O0PDSbqOwjhByAMy+wvz3exdVWgRMVGrUgTryvXNKgVkdxD6AqFpkiQ3EYfjSfd2FrE35OV4AB/feZ2CXNRzZKcIOnZCD49AzM3vGWFN0IQJfUVAeO4Ty1QkBTNcgDnse1u/y7QBtCJbn0j9G2w4QaUEqJ2wviJ0DH6pyAJ5xzzIdnHHKvMyCNWQ9VOS2vDOlDDRu4G4AdVlQqKMDyssXnBdCtYgBjNNN5uJUWr5CbpqQA+AdnG1svN5VKFPULSO8Ix9BqIy0NnWMMoCZNVNswDStKFSUnoY58I1TyMF3hUsBuss3TssRF5pX5ADYcRdDngjYFV45LRod9b5yxxOw6wUhwHdy4MUggXsgKd/y8QQMI++j8EpVTMCaIgfABTVlpigFXGWgsD4eYEPJzOteuRzklOQAKCPvo7g4kNdT2GFTlABqSFMJ3PEAvO55WxUwcwoKFb1wPyB0UdT9IDCkYHpMfgpVXSQp38SmKAUoBgpGGw9wAs/8siPbRdCY9SoQvhCmphDQLnryPosaG6MWI7OLGFhVbIpSgIl9t9p1SfR0cpHQ1CSqhjBGEv8guKVCfCGMWaB1FRK3IblR9g+QCJCmKAUkCPqSvZkHMO4xz9RCP/mr/ESXwO/0n6IokWsXD4TyAmFTuRV+oOqjXdKWqNvRQrQb0NhBftqSb/WAYY+FStsH8SJbcIYAQL8GQfafwMzh5zFnmIDj/ew/cOI16b53reqjjagNwbQLYzUR8IETM0sNTG5y84Tg2uRO2h7MpPkfPpMJAT6g3Lx4n8HqWqnKranG7K5wYRTfG+PjABfULEECGoIUHnsBYlomL+EtPhymMnPiM3AOh5X+Mtujrp4/wMVTdvUyeq8vU4NZjjrDqAP1GXBDX4EBXZRIKFJdgWeDEgKyfjOQ1Z/Hl8CmLAteA80lzqOhspG+1BQlwZSDl6PtCT28pYTLZECeKV3idBbMMAY73JyxvwiDn4sfNGOwWEIyrixCTh94QOnCUgxsbGyzlWXSHEcIefRz9IzBNH1V6KYNgBgsMoNv8LaK3bRN2oyKkrFq0M4OycFplIdsyI3eZ9ly5JQjPNcCDvPyEJQn3IURFV79jQdY5LVw6XC9yovgHBNeHUxeOaPMC6PR9UVQGRVFZsde1e7zNgs8WDClPG25w9DHTMSDTkxJ4CNcQDtvkZVCxS0ZXE8dwgO3Ig9Z4YLBuKhdSsIB3PHSFl8bubEws8pzVIn2FF2e8NvYYft8WScP1gJySmJdjKGZF866fYF3lttshkvkgVeNbi23kARb67KaX1SrzE3Ynvq9LlxRoNq09JS41GKnzb41gQrNIy/G5hiol8jSroS/vMkgEh7JcyApgAUAjDtKSwLe36QcnMOHrIQLXAIMZqkFpj1hBrJdUdd7Dn34xkEjRbUOURNqX9HNZTulpzi9w1SBJgXcjJYhyysm+Kif4Gv8oFExgW32Rkh7QNJI3VLrAy15HFGo0z2jmpHq7eD7Wu822uTEjZROyjduFTKLzINwiJPgs9qiGXADwmbuBk9EeGA61nLwEMYd1dtYFKg5FlIOrop4fYzOHxxD04QjCrzeaU03tFpnK7vT7XZ3sludWor7fi6O+8m2zFkgtTcYFpioSxU/KU9MoxOYlHP0tsm0QjH5HsYd1YxWKCqwvaVR90Dej3bBNHtZh2FZ2MUdaVwjXfCWQG/Gkg9+E6nG3eXO2e5kq2JdjnavrnZHZyYx7KTAPElEa6w7sOj7w+3t7dszO86IbI5ltz1NL+c71zs7O9eddpm+AQq9sWyHr1VMn3nrOx8eV9kkc4U3EII1NKNA9NqESyrlV7LsQsG2yIpYYt8mu/T9EV45qkOZsmDr1AOkSR4uBQ4GRPNvsD6iQ5leX4Ad6evb+dDboqKdY4WRLaGrJ+277xQJfOSoCTrUC7CkK1Po09+lSOCvj2M6edhWGahBwpAkf+44uQ7yEjkta8y+LKSAdqbpd/G9m4ON8wgk0I/YAsu8wtpt9JVWbatLgsXtGlQnIcONZ0QnQW1uizoJlkgKPBy0oosr1ejL4EJxbEhBEM14Uxyew/PhvAUqKNwlZudM1ZHSfKZ0RZpEmSIrnDRGMKDYujBSuUh+PMXDCz0fBOuhn6Kkc136rnTjYJk5XgNOiRdan2BEVhhTO1lZI2lGT/UFOrJ5b1PYaUkN0tGNVBRko9RcA1C0PPcdxMvNFLxk3AB2fepJNuaNpBzoRi9K28JIMPcw7WZiFapfbjeFu8LUdeProRkcgSjo7e2l5zpepYVPWYkXKeKg2+S8JTksAqmtiC+R2h9XKXvZg1U9U8tCvWW4spDJ/RQlFxa45oi65icRl+RgujWXON037vouoxRbeKhna/y3hrtjf6hXK0vhNkiwNLijcA/V84C3f1EDi6b+2kSNAReEqE8X1fTFGnAwK1H4z3//XOC/vFnLr8d4zq8nAgVbseKLQbfR0v2J0LPL9MIWRqp5vfyU+L1hv1iwghFeplmyCsX+OOLA68dvP/1h197N90ZeZ+4jDrx2Om1j5h+76zLac7EGtS3zwN6/w+Cf93R0XKnYofXZRfNMcYYxBwc7W71aq+1eZqrdqvVURqTLsH81Ojvum5Zl9o/PRrtLZcKPXt4mN08uAZtP988PssGyJLaznZNWyl1YrZMN7WzhPI7KqD+M/b3z8de7tFmaru9iuLukBKw3wq1TKmOFEqweoL0xeXnlrwCYs5O8sOyXINwbk7wtKx7IbLrwSHx5kXaCyKhvSeuuybEtCVYFp2nosmEJoFBeZdJfggiYOcfiTn1Y5fVR17YWOOjNxykL38fXBVaRWtFnAhU4rXDE2hDkPMJCwKvGS7AMYPF7qsztC4Qz5hJVtEqg93Xzer5gb927JwolCAO/sLtMGv6o5DcJVKwW7MxxBx+SRZVe/GnACZYDrmvWyrXwjlu/ZlKcCtOmEkQCU3id0nStubXjOE73utNiXwQS+9uy1hDXRO2Ulxek600/+HXGa4JepNKpJHsTCwQF/gwEbYMJ3gN1EiLPK0igiqZiPW1CQYwgXjvEQuPHMhKsAF2y7QxAqZI8wTtQb4q7LDQ6jJFgpXDyfBa08klik34InBpZ0zz12HqJGvow1Lfy5ZB77FWc6s0kg//BqHcbzZbfG6u5FaeJBPwy1OtJeDRBggTri/8B9j7MrYKhymUAAAAASUVORK5CYII=;" vertex="1" parent="WGCQ1PHkLu7HlypYQ9xg-8">
          <mxGeometry x="101.5" y="32.142857142857146" width="177" height="59.46" as="geometry" />
        </mxCell>
        <mxCell id="WGCQ1PHkLu7HlypYQ9xg-26" value="" style="points=[[0.35,0,0],[0.98,0.51,0],[1,0.71,0],[0.67,1,0],[0,0.795,0],[0,0.65,0]];verticalLabelPosition=bottom;sketch=0;html=1;verticalAlign=top;aspect=fixed;align=center;pointerEvents=1;shape=mxgraph.cisco19.user;fillColor=#005073;strokeColor=none;fontSize=17;" vertex="1" parent="1">
          <mxGeometry x="85" y="56" width="77" height="77" as="geometry" />
        </mxCell>
        <mxCell id="WGCQ1PHkLu7HlypYQ9xg-27" value="" style="endArrow=classic;html=1;rounded=0;fontSize=17;exitX=1;exitY=0.71;exitDx=0;exitDy=0;exitPerimeter=0;entryX=0;entryY=0.5;entryDx=0;entryDy=0;" edge="1" parent="1" source="WGCQ1PHkLu7HlypYQ9xg-26" target="WGCQ1PHkLu7HlypYQ9xg-6">
          <mxGeometry width="50" height="50" relative="1" as="geometry">
            <mxPoint x="421" y="529" as="sourcePoint" />
            <mxPoint x="421" y="111.21500000000003" as="targetPoint" />
          </mxGeometry>
        </mxCell>
        <mxCell id="WGCQ1PHkLu7HlypYQ9xg-28" value="Crowd-sourced&lt;br style=&quot;font-size: 15px&quot;&gt;movie &amp;amp; actor info" style="text;html=1;strokeColor=none;fillColor=none;align=center;verticalAlign=middle;whiteSpace=wrap;rounded=0;fontSize=15;" vertex="1" parent="1">
          <mxGeometry x="182" y="57.5" width="130" height="60.5" as="geometry" />
        </mxCell>
        <mxCell id="WGCQ1PHkLu7HlypYQ9xg-42" value="" style="group" vertex="1" connectable="0" parent="1">
          <mxGeometry x="445" y="602" width="210" height="230" as="geometry" />
        </mxCell>
        <mxCell id="WGCQ1PHkLu7HlypYQ9xg-12" value="" style="group" vertex="1" connectable="0" parent="WGCQ1PHkLu7HlypYQ9xg-42">
          <mxGeometry width="210" height="145" as="geometry" />
        </mxCell>
        <mxCell id="WGCQ1PHkLu7HlypYQ9xg-13" value="" style="rounded=0;whiteSpace=wrap;html=1;" vertex="1" parent="WGCQ1PHkLu7HlypYQ9xg-12">
          <mxGeometry y="20.714285714285715" width="210" height="124.28571428571428" as="geometry" />
        </mxCell>
        <mxCell id="WGCQ1PHkLu7HlypYQ9xg-14" value="&lt;font style=&quot;font-size: 26px&quot;&gt;Browser&lt;/font&gt;" style="text;html=1;strokeColor=none;fillColor=none;align=center;verticalAlign=middle;whiteSpace=wrap;rounded=0;" vertex="1" parent="WGCQ1PHkLu7HlypYQ9xg-12">
          <mxGeometry x="35.13461538461539" y="-6" width="139.73076923076923" height="17.755102040816325" as="geometry" />
        </mxCell>
        <mxCell id="WGCQ1PHkLu7HlypYQ9xg-23" value="" style="group" vertex="1" connectable="0" parent="WGCQ1PHkLu7HlypYQ9xg-12">
          <mxGeometry x="25" y="50" width="160" height="60" as="geometry" />
        </mxCell>
        <mxCell id="WGCQ1PHkLu7HlypYQ9xg-21" value="" style="group" vertex="1" connectable="0" parent="WGCQ1PHkLu7HlypYQ9xg-23">
          <mxGeometry x="1" width="60" height="60" as="geometry" />
        </mxCell>
        <mxCell id="WGCQ1PHkLu7HlypYQ9xg-16" value="" style="shape=image;html=1;verticalAlign=top;verticalLabelPosition=bottom;labelBackgroundColor=#ffffff;imageAspect=0;aspect=fixed;image=https://cdn1.iconfinder.com/data/icons/unicons-line-vol-5/24/react-128.png;fontSize=26;" vertex="1" parent="WGCQ1PHkLu7HlypYQ9xg-21">
          <mxGeometry x="13.5" width="33" height="33" as="geometry" />
        </mxCell>
        <mxCell id="WGCQ1PHkLu7HlypYQ9xg-20" value="ReactJS" style="text;html=1;strokeColor=none;fillColor=none;align=center;verticalAlign=middle;whiteSpace=wrap;rounded=0;fontSize=13;" vertex="1" parent="WGCQ1PHkLu7HlypYQ9xg-21">
          <mxGeometry y="30" width="60" height="30" as="geometry" />
        </mxCell>
        <mxCell id="WGCQ1PHkLu7HlypYQ9xg-22" value="" style="shape=image;html=1;verticalAlign=top;verticalLabelPosition=bottom;labelBackgroundColor=#ffffff;imageAspect=0;aspect=fixed;image=https://cdn1.iconfinder.com/data/icons/hawcons/32/699766-icon-12-file-css-128.png;fontSize=13;" vertex="1" parent="WGCQ1PHkLu7HlypYQ9xg-23">
          <mxGeometry x="94" y="5" width="50" height="50" as="geometry" />
        </mxCell>
        <mxCell id="WGCQ1PHkLu7HlypYQ9xg-41" value="" style="sketch=0;outlineConnect=0;fontColor=#232F3E;gradientColor=none;fillColor=#232F3D;strokeColor=none;dashed=0;verticalLabelPosition=bottom;verticalAlign=top;align=center;html=1;fontSize=12;fontStyle=0;aspect=fixed;pointerEvents=1;shape=mxgraph.aws4.user;" vertex="1" parent="WGCQ1PHkLu7HlypYQ9xg-42">
          <mxGeometry x="70" y="160" width="70" height="70" as="geometry" />
        </mxCell>
        <mxCell id="WGCQ1PHkLu7HlypYQ9xg-48" value="" style="group" vertex="1" connectable="0" parent="1">
          <mxGeometry x="501" y="370" width="100" height="30" as="geometry" />
        </mxCell>
        <mxCell id="WGCQ1PHkLu7HlypYQ9xg-46" value="" style="endArrow=classic;html=1;rounded=0;fontSize=15;entryX=0;entryY=0.5;entryDx=0;entryDy=0;exitX=1;exitY=0.5;exitDx=0;exitDy=0;" edge="1" parent="WGCQ1PHkLu7HlypYQ9xg-48" source="WGCQ1PHkLu7HlypYQ9xg-1" target="WGCQ1PHkLu7HlypYQ9xg-9">
          <mxGeometry width="50" height="50" relative="1" as="geometry">
            <mxPoint x="-11" y="120" as="sourcePoint" />
            <mxPoint x="39" y="70" as="targetPoint" />
          </mxGeometry>
        </mxCell>
        <mxCell id="WGCQ1PHkLu7HlypYQ9xg-47" value="OAuth Token Validation" style="text;html=1;strokeColor=none;fillColor=none;align=center;verticalAlign=middle;whiteSpace=wrap;rounded=0;fontSize=15;" vertex="1" parent="WGCQ1PHkLu7HlypYQ9xg-48">
          <mxGeometry width="100" height="30" as="geometry" />
        </mxCell>
        <mxCell id="WGCQ1PHkLu7HlypYQ9xg-49" value="" style="group" vertex="1" connectable="0" parent="1">
          <mxGeometry x="655" y="580" width="233" height="100" as="geometry" />
        </mxCell>
        <mxCell id="WGCQ1PHkLu7HlypYQ9xg-43" value="" style="edgeStyle=segmentEdgeStyle;endArrow=classic;html=1;rounded=0;fontSize=15;entryX=0.5;entryY=1;entryDx=0;entryDy=0;exitX=1;exitY=0.5;exitDx=0;exitDy=0;" edge="1" parent="WGCQ1PHkLu7HlypYQ9xg-49" source="WGCQ1PHkLu7HlypYQ9xg-13" target="WGCQ1PHkLu7HlypYQ9xg-9">
          <mxGeometry width="50" height="50" relative="1" as="geometry">
            <mxPoint y="100" as="sourcePoint" />
            <mxPoint x="195" y="-30" as="targetPoint" />
            <Array as="points">
              <mxPoint x="190" y="105" />
            </Array>
          </mxGeometry>
        </mxCell>
        <mxCell id="WGCQ1PHkLu7HlypYQ9xg-45" value="" style="shape=image;html=1;verticalAlign=top;verticalLabelPosition=bottom;labelBackgroundColor=#ffffff;imageAspect=0;aspect=fixed;image=https://cdn1.iconfinder.com/data/icons/material-core/23/https-128.png;fontSize=15;" vertex="1" parent="WGCQ1PHkLu7HlypYQ9xg-49">
          <mxGeometry x="192" width="26" height="26" as="geometry" />
        </mxCell>
        <mxCell id="WGCQ1PHkLu7HlypYQ9xg-50" value="" style="edgeStyle=segmentEdgeStyle;endArrow=classic;html=1;rounded=0;fontSize=15;exitX=0;exitY=0.75;exitDx=0;exitDy=0;entryX=0.25;entryY=1;entryDx=0;entryDy=0;" edge="1" parent="1" source="WGCQ1PHkLu7HlypYQ9xg-13" target="WGCQ1PHkLu7HlypYQ9xg-1">
          <mxGeometry width="50" height="50" relative="1" as="geometry">
            <mxPoint x="260.06666666666706" y="670" as="sourcePoint" />
            <mxPoint x="210.06666666666706" y="620" as="targetPoint" />
          </mxGeometry>
        </mxCell>
        <mxCell id="WGCQ1PHkLu7HlypYQ9xg-51" value="" style="shape=image;html=1;verticalAlign=top;verticalLabelPosition=bottom;labelBackgroundColor=#ffffff;imageAspect=0;aspect=fixed;image=https://cdn1.iconfinder.com/data/icons/material-core/23/https-128.png;fontSize=15;" vertex="1" parent="1">
          <mxGeometry x="130" y="693" width="26" height="26" as="geometry" />
        </mxCell>
        <mxCell id="WGCQ1PHkLu7HlypYQ9xg-57" value="" style="edgeStyle=elbowEdgeStyle;elbow=vertical;endArrow=classic;html=1;rounded=0;fontSize=15;entryX=0.5;entryY=1;entryDx=0;entryDy=0;exitX=0.831;exitY=-0.004;exitDx=0;exitDy=0;exitPerimeter=0;" edge="1" parent="1" source="WGCQ1PHkLu7HlypYQ9xg-1" target="WGCQ1PHkLu7HlypYQ9xg-6">
          <mxGeometry width="50" height="50" relative="1" as="geometry">
            <mxPoint x="510" y="260" as="sourcePoint" />
            <mxPoint x="560" y="210" as="targetPoint" />
            <Array as="points">
              <mxPoint x="440" y="210" />
            </Array>
          </mxGeometry>
        </mxCell>
        <mxCell id="WGCQ1PHkLu7HlypYQ9xg-58" value="Authentication and OAuth token retrieval" style="text;html=1;strokeColor=none;fillColor=none;align=center;verticalAlign=middle;whiteSpace=wrap;rounded=0;fontSize=15;" vertex="1" parent="1">
          <mxGeometry x="690" y="688" width="160" height="40" as="geometry" />
        </mxCell>
        <mxCell id="WGCQ1PHkLu7HlypYQ9xg-61" value="" style="edgeStyle=segmentEdgeStyle;endArrow=classic;html=1;rounded=0;fontSize=15;exitX=0;exitY=0.25;exitDx=0;exitDy=0;entryX=0.56;entryY=1.008;entryDx=0;entryDy=0;entryPerimeter=0;" edge="1" parent="1" source="WGCQ1PHkLu7HlypYQ9xg-13" target="WGCQ1PHkLu7HlypYQ9xg-1">
          <mxGeometry width="50" height="50" relative="1" as="geometry">
            <mxPoint x="455" y="725.9285714285713" as="sourcePoint" />
            <mxPoint x="171.00000000000023" y="524" as="targetPoint" />
          </mxGeometry>
        </mxCell>
        <mxCell id="WGCQ1PHkLu7HlypYQ9xg-62" value="Requests requiring authentication" style="text;strokeColor=none;fillColor=none;html=1;fontSize=14;fontStyle=0;verticalAlign=middle;align=center;" vertex="1" parent="1">
          <mxGeometry x="181" y="710" width="240" height="40" as="geometry" />
        </mxCell>
        <mxCell id="WGCQ1PHkLu7HlypYQ9xg-64" value="Anonymous Requests" style="text;strokeColor=none;fillColor=none;html=1;fontSize=14;fontStyle=0;verticalAlign=middle;align=center;" vertex="1" parent="1">
          <mxGeometry x="265" y="620" width="191" height="40" as="geometry" />
        </mxCell>
        <mxCell id="WGCQ1PHkLu7HlypYQ9xg-65" value="Secured via API key" style="text;html=1;strokeColor=none;fillColor=none;align=center;verticalAlign=middle;whiteSpace=wrap;rounded=0;fontSize=14;" vertex="1" parent="1">
          <mxGeometry x="383" y="209.5" width="139" height="30" as="geometry" />
        </mxCell>
        <mxCell id="WGCQ1PHkLu7HlypYQ9xg-69" value="" style="endArrow=classic;html=1;rounded=0;fontSize=14;entryX=0;entryY=0.5;entryDx=0;entryDy=0;exitX=1;exitY=0.5;exitDx=0;exitDy=0;" edge="1" parent="1" source="WGCQ1PHkLu7HlypYQ9xg-6" target="WGCQ1PHkLu7HlypYQ9xg-67">
          <mxGeometry width="50" height="50" relative="1" as="geometry">
            <mxPoint x="560" y="210" as="sourcePoint" />
            <mxPoint x="610" y="160" as="targetPoint" />
          </mxGeometry>
        </mxCell>
        <mxCell id="WGCQ1PHkLu7HlypYQ9xg-70" value="" style="group" vertex="1" connectable="0" parent="1">
          <mxGeometry x="775" y="60.93000000000001" width="260" height="98.57" as="geometry" />
        </mxCell>
        <mxCell id="WGCQ1PHkLu7HlypYQ9xg-67" value="" style="rounded=0;whiteSpace=wrap;html=1;" vertex="1" parent="WGCQ1PHkLu7HlypYQ9xg-70">
          <mxGeometry width="260" height="98.57" as="geometry" />
        </mxCell>
        <mxCell id="WGCQ1PHkLu7HlypYQ9xg-68" value="" style="shape=image;verticalLabelPosition=bottom;labelBackgroundColor=default;verticalAlign=top;aspect=fixed;imageAspect=0;image=data:image/png,iVBORw0KGgoAAAANSUhEUgAAAfkAAABMCAMAAABZGD6kAAAAllBMVEX////muhr3zz3swSbvxSz600TzyjXyyDHjthT71EXpvR/1zDntwyjkuBbovB730D///PTpwjP99tv46bb//ff87LPvzlv23oj32Gv+++357cD++OPz1m/31VruzVT78tL811L+88z72mT96aP855f89d364YP633v45J3zzkzwykD97K731l3qyEf97rjw13v733Xz3Im9DNqvAAAWe0lEQVR4nO2dC3uqutKAVURrtUWtN0AElOUF2rr8/3/uI5dJJiHcrF3t8509e+/nOaeNGPIyl8wMaafzn/x/krcul9lPz+Q/+bfyH/n/VfmP/P+qtCHvZln4/TPKxQP5N19XKgsxEc+tGRpLqRnp/5K7a0HejWzb3n/+g0nBnLqrf/BlVRL1xuMelaR6oD+yR7nY5N9p9dC/7ILj2mt+s7Qgn4xy8o6z9759Ut2XX0L+yLn3eu/VAzNboq/WjYXNrzge11mH75UW5ANCPkf//ey7gP6nyXvjHvmHSLW5P+UrMxox9sfKkTE8S2P7kTNtLy3IE2NPyTu9/fc+rr/G2k8dofTLqnGLkbD1IzuqvGQCF+ydHjnT9tKGfH5XFHyO/nvZ/xqd72yEo6/kFNtc53Ojb48qI7d3Yez/RcRUIa3IC50nsv++0PTX+PlOBuB7lbZ5zd08Y18VublC5Wv8x7fL/eTHzrdN6tdY+44/7nE/36t60CMCnMInSr+vGLkU4KtG/Qtp6+cl+MDreMfvifV+D/lOIEidywfNRxDg2dTXV2jzSQR4h8dPtpXcFeHl7CMS8bwPBt8S53dffouf76xB5Xub8kEHyt3mWm/bFdGgLXbz88dPtpW0tfYMfJTRnwTjQc7+8f7+ByK8ZMtFi1zFJqxnl2do9jaN7ISjL48GQ3G56K5pLjYgi7s+j+QePx9l/GuDAZXNo9n/QIS3GXDR9dUWrEqt25Qae9jP5/8zKv2as7ja+q5pTvsgNZnCemnv5+2DeNw4+cFw+1jT9QN+vpT8qZ7VJ/PuI7Gpt0u3vPv656hSfog81fkEfaUgPxye/K/OBMlv0nkZjEdlnz3aKIPHFqlk5FRYEOc+a/1jOj9KlC+kfp6jHzyQ/Q9EeKXk0Qa87AYjauzz/048j2cHJSM/xbX+3jfNnyEfjBJtu4J0fjjs99dfjjq4/CZrjwx0Zv5oDE4+COl2nkjJQ7Kuu1ad/Ax5t7BNxeTJbK5fnQ2X32TtUVBWoqcJg01ydxHP5dglYKNa+1EjP0N+UZgttvb5ZAZvnTB5RJz/q3RebsRKEriBzUP7uHNku3rbNj8kfs/hl6op+pbKz5DfjPQyDdL5/nBwzW3CZjJ5wB7vV+k8UlRjyO5z8KRG59lc50dGx5cB+LubMn4utt8oN4+tPQvwLpNcvrzH+4FMTgX5o4jHjbwym8uRVmttpvXGTdvf6meogfzgft7+i7AK8oMT/+muP6Hsvxbn/ypr3/EEL2OR5a/NN3Wk6noajcRjUBQbdP7upoyf0nlWnz8J9uDnpZKvcuxWLpPrV2qQv0vnp8DLMRVWFxw1679bcj9vbM+QmeC7mzJ+MpND8vZHrtKXQvJ2leu8xdiv72f/cD/vv51v69P6lsVlk6og39kIc29opvAgsqdBnQvW3jZ4vES4ecN13NDLDutjcsi8CoPZivwi9rLkur3mt20YbSLvv93oeK3VGNXnbcaekFcLNkTnKXjLerZu97I3WPslSMk1Y/h9Ib5cvG1SsV7DYXDDI0L4GDiuwXG5/ATh3jgTumqw4WsOfsQ2cnswAYYi7HsPYnvtJhbxWmyTiFzWnhYhwjQzcSfZUsofw4KE59WEUnim8rHWF6ZA3r3NXpg8Pb18nNHzp9TnHZLVOQ42WqiCyOffOrszhDWQn72+slsoyXdvcytjEXujZdenN4mdsx9e5G77NNBlPM7/5cILs77Q+aj4xZHNM3hspQ7g6IsxgeuAzqu/C7fOmHDH7AfpQWHPcmXDvi6TCfmvkD1YnFNLyDOX9KxcUiPvXl9fQJ5y9k9PV2EolPp8b0zKEgUF3CHy5Nu2xaVqIIbs7ez1mbEvJ099jEY+07j3yfoNhynY9AL5MflXI4/aMwo2fA5entOcg84Xi7oydYvtQbwh30S+VJtJiv0O5Mp08H0aUWvkFe4CfC4z3F2ikvesFw3809PsjQ9F9XkiY5NCU/IT+ZX5V92R0jVEeA10nnDXyF917lTniWwZmKLOD6TKC/KQdHWcgg0/AHlYjQgSuAVffoSVQ8/PfM++qcCdyE1+lnA3oc/ZF8jHmLu098zoS5uvkL91X7A8ceFPivTz5Abs/KdJetSiEVXnd/n3XK32Yb4hwiPka3R+UtD5TXGlhoA+oLMykS9YexSUFxpz9qDisKRrHtwX93UiIxSJH2WOAG+CL9svzLaeGPuCzp8nOniJ/vXVAj1WyG9fjOCfntjDFyHw1M2T/fxYZY90/nlHY4Bdt9uavdnPv9bp/ETT+bWJO5AfXsikDOTHRWsv2jMc3Ya7oPIR/CQGRx+pIztzYS1hioujNC8mnc/DTfgwBW9WepX8YmtZGnms87mAE0Hkb11F5Z8QfPqgSJ23+Y6NBsRjvH27CPIXjmj3ml/89dZq+2nU+Wfm6EvJk69VIjyPuEGQdHU6Bam09rkQz2yI8Aw6j9oztK//RAk8vvTC0WvB78HRr3FWwOcP3CW4pHguwyEwHRod/YQrvSS/2FVzz5fQ4l8vyYeqqcc6/zQjcEHnbaHm7+xJHUuuF+AujMqOXPzlpRV7Y4TXQOctRecvYoUuZ/5wuueLJE9GmnTeQB7aMxw9gXsEzHJaJ3D02tBNvqVj2yJhwzeSe5CEbI6ut8b6z5d6WOboKXpJXtX42TXzQj9cJh8Ifcr9kiBvfZD1zoF/nMlo7zzD6AmCiPsvad7f4dlMoWOD6ryFw1Kq8+S61rlxrGey9s+1ft5SdT6mWx4iSr/0W8q4D+hy+XMue1jqw1yKuFNoz3B6Ws9FxI09qtAs4WFQ925TkbqVdbxpwMA7a8VlLhLOfjgY8tuBGcUCeYjmKYxugrmvkNEJr0z3X593MFiQJxY257OSWYFwhtDnP6YO7IT3NYJ8vk9iXAn5VAk4uM4TG9KYvdna1+q8GtufwNZr8bi7J+BT7TpVObwOtGeQAEdhFANllI51hblXhnq5xjP2aHn8lIAvdjPNU1jYgRoiVefw3lBwN9NuJKR6/ypbKCR5gudVGb5YSfJX+nyf1P3sO67P09zDVuPOyXP0T7NmlZySTA6FX5nJwbF9StwgMfWFsZs8vNM35jXkz5y84yi3lwBk/CkR7itD147DzT1eg9gZp6a6HUefK73qM6rJp5ZAfykG1dvnZwtNSdH5V20Siw/p6RedONGXC+k8cUK5B1kUkqdI58llDPMtinlXV6/zirUHW38rjJ1eVoV1qyEfgrV3lGJLAJDxOh8MhiAf6jgMvNqUkQVmZTjDyqrupZL8WYLfmR6M1QzTQTrffSmsqt8V6E1PJiJPow/TayiMfBfQm1LMBbkzk6NEeP6EqXzf0BhlWOwa8nQzTpUWF1h9o0ufQ4iH2zN8safTAr8SB7hI+boOFIZV5Kcyg5Maw+mpYgfekMobUq1btKdfB4l2QUw+R7/xO+FNf0KktSdX2ZnvUxNjhNcge4vz9iEEeBXvwyGpI38U5h7dYGY7jLEaSoAlUIZSlSfsGzZlHImtJyur3HAV+cQSSbQm34F0fmZ4/P6g6D4ajaJDadd1PyBTXBW6sWhsD9b+2izEu1/nJfn5pM90vuJ9OCR15D3Qebyv+ws6r7pB4f3R0BPofNOmjCVz88Oh8lRVkU+FrW/0/g7y80blEPH9jO3qxJtVRFA3VsCIXEh9XmEv/fzLqmmX1t2xPYrwpuDn+42UrI48fUeCgHekZRdJm0gdG8PPkY8WWe+mTRkxGFPFO1SQDyeiNaJRylSSfzWOF+a+Czm8SDpOQf4C5QmWt59spTsX1n7VvDPz/v38xFJie5a+ezN/RJE68rw9g7AXa+5xW2/rOsZ3+Y60BTHn7piaMowyZ5u64VC5eAV5mq+n5Js1v0s/b+5/OQtzL/P2EawOJ3+RqyUqNqITj+t8C+4Pqs+jrP2m/iW2WvIZTeERpRfsRAJPtyriF0JJEjhlpvFJGT5YU8VIVJCXxbJmSy113hwJLTXyzGoF7O4p+QsOnmVnxuTK2FPyrbg/qD4fQnBP9b4QeWoC5Mdl5H2evnUckaKPeIBXaLH+BJ0XMcZenDFTNQk/9paHZH08nrbbPXPzg6ESd5eTn/IGSMtqeJqpJG9eGg+Rx/X5d0Igj/C03pEVqs9btJSTk9+17TF+TH1+21ck3Zwrnr9anSftGUxxI/6DORj7guueKl2ZHdqOw5W+5KQMP1tvAkO9jnQSKFcuJR+KlW/YDSPJm81QqJGXrRl7t7PcZ9rjrtbnrduik+kNWw3kMfV5V+/HIfSzEmtbTz4RSs+994FUr/QEHr8a7Ou4Z/gUq2YIcqfe+mKuz9MIryH5WKx7s20sIm/+vW/w8/QWxmPT3gHX57/QjWX0863r82EBPXkVyOz068nHPVB67t4gS2s4Fge/fUHkCDofFYa6SVpen2+h80ux8k0C2g4i/2r+/dSk8wR8b+N25gc9G4a7sSw1T9xCHlOf73T+XHT0egemkHryrD2D3D4rtrnkFAlHT+Ax8cHRR+z/R6Awura4a1vW540q35T8uVUap1Pfbz816TychLgfay05lLwlwN/7it1j6vO5LG46dtaZERQm1oD8CXTepi7uE9y8yXWLhD79ojlbtPwfbfZhVMGdw29I/sYKVvkyNMyatCEvdf6d3QGJ7ZWWHOznn1sG9Eju388Xuq59reuad+UMdLVvQH7JUzkO43eyuZs3rXTCdd6hTjcDfbHVsGjplLRjjdOU5u1bWPuE2bzGm7o25EcQ2wewo2X7ecz+IhJJrQN6JA+pzwuJ1xcVOxUtDmpA3qX1eSI0rQY5e+P5GFC4Zxm/Ddd5R325OukBdNZvv18fPsO571KofssIL5tA2v7x1p5vVQK5NrAPGYtSDvThXepzJ+WyKMnkVNXnV4X6PJb5mb9ng9irF2pAPt+Uc3NPYMfEyTt22Zk4ESi9Sw425zqvFvc/scJHSajaA0a+ubV/oypH2FeezYw+0FLnIzx5mbeHdizWjXVpGF6WiCt0Xt618PMlMeOlxNpLCZOgjxswUyUkb0L+DNaeNOYk3NaXnIPF03iOs+SpW4oeB0VTW4IPijldkcNrvqvj1rbhi03tyEfq/h2/P8/asQj5S8OHrlR8kcmRGWiRySnZrabGCE+T+S2VXddDpWWjCflQkF/STguq8pF57CdXeZLmSYC80pRxGIOxHx8NJcywZWz/R9RoG76G2oJ8stHzNuoJSaQP69T/Mvf88QWV70o4oj5vJutCwaaSfG54DwOp9PgXTcjnmzNO/sQ6LQjbkr9jQNJ4Dj0+kLXjUJVXtDEQGm/M63lQn29IvtMHR9+vuAMkLcgXRTsnp3/rLB5xJGImdF5iSEHnzbkhz9Lr82XipwI9DoIbkT8CeZuE6xRt6d8u+ct13ol9UHncqdFxySnaam+3IoeWsT05qIZvp5vFWC3IZwUXG6jgTY1PNeKbtiBX4eflbz8gtjfbshu4+VryHU+Qx5Abkf/sAcPwL0/dlv69ooybeydZwoeUpgxP2HpzoLBtGdvnwT04+mbmvtV+PtKWRbX2q7b7OO86M7ZkzoS1l0HYCvbz5nmmUKpr0I8SmDZ2gnzV00t65hnEhCbwcvalHT8+Mwn5RuAE5JXKTibcvLlPifXhNY/tO66ozzfb0bfc1alBaIDAB+32cX/OK9bdWZylDO0t+cMtWPtn022BsW9g7fNYhIPH76o2I0/ek5GiVuALspcpTy7K2okALzV+eimWtoR8sVgg86eNlL71fh6zlzrfkjsq+xcbSG4vkL1FN51Bff652EWd3zRkjFVrbz4bZQ06jyMreM3K+G64nAUGT4P78hcIErbfR59QZpOBypv/NEgwMNbnO+INq6ICLC2h9E3c7h05PPnHDCDCu7T+YzyuuGxXv4Wp9QIRHnIuodB5Q6PoWXBXyGf9lcmSboE8nvUadL6yuug7CvqSBB6fsa0pvVrZ8YS1Nz082cCs8x2RizbEIxcR4xmeCyKKO25Lnt4KnIjITki6ax+3E9edaYq5FSrfxb7MghCvqPQh7wLSdH496fcNHBcQ3A/w8iRAvsTtcgkU8oUXLBWJbBYMgKibt1CQN2zq5mMBXiMvqo+GO4stITMT+uUz/nsIba0925j2WLtFNNCasZqLNPdPqlc6v5hPxpKOXt+1hDOk8oL8YsN6rgsG/wwqr7zDsATy1Y4+cTD6ioPsOyyNh8mrG163B+ijwhT9y6BM58VhEAODqVjJ9+r6Rfeb5WuH3r25S+dJfZ5UYDf3cu+gdu6npw95EwtyegPovPLchpDKydErRibri7ge7efdCzs+qNB564lUjhJq+0Lnx1UhS4y5mxot8DfZDlZ6fexGbOv2Wpwep5L7cKjuHs4ixDO8luXPpNZbW/WBmu/oG5Uf4qd36TxFPz52pl844hYp/UuX//WYP+RcLvZSr67ydEcvZCu+2OPB3U7N3obpRPTbr9CDMhfhnV6yEUcWjAcnEhku/GxrCF+w4y456RJkMVL8vD4WFWwCbDp85Z1+nbx8jbo/OIf5IzMNk52w4TE+KWV2lZf1tvwEhdcZNMTfV5+n7Vhf/INr0tPn7F9eZx8zcXSDnsZhk3+W6K3ndHs7n9dbeMhnMaRy2F7B4wdKMEnXB2/uh2+HABXrtOBMOHp6dIJNW6QMBu2EwDumkxGVsdja66ZkEaFa3fshnrsdd+4l8CJ/EPAcnqYAaptROiAeTmr30lJktrkmWXLdzMTBCTl6/eSEhuRB5XuG8lI7cWeYvBD29qWSs+eyfVaEnAQiZOmDo+ducTnBZ6VwwfX5gZZndseSO5yaYSC/dBD6mj84vsQhXvGUNBndD4pteKm75eZee0Iz5Y7YsWjI7idWUdCikZ42bgLbdmNxpf8y91zirgG80PliNmI6U7Qe39ualGxYfR4ComW/b4Av2Rci6gTrfGnU7SLwWqNFcSxWecPYNarPaw1Z4zl5pZIqvUZ+ESjgaVSLH+K3vo7dwuBfRXx8l87rWdw7RaJX2BOt736YXu9MJXgLo88t/AKsvXhi4mLTdV/qvGE7tte4j41ZnT1CXxfe7pGbN409SvBaN1buoW88xtNzfPNBQecVvzi/aOgVnZcdOy3I77mfj+6O53UJLeD+pOn8yph98yV6pPQTmn+f8AhPvqftnor2np+KZqzLuO86elMm+IzI150AckBKbxybCPSKvJPBGY/tB/qHvBSTJzqv7i2n14kGXrJHh+G0qdVRYx/pRfqviLsymfuyN73y8Vuk9Fwu7ImnrRk5e3w4SqwfhciN/cZcS14cNZ03kQ8l+doQdy79fEmyL5ZVeqnwzNSEvD4/LCjBXEZ57FQ0PavgC/bqqWgfOMpsU58/juzCSzVfleWsQL77UbFZDHfPCnxxLM+FO3rVOIZr/cDjfuGUZjx8i8+9NRu3SKh8fdtTJHS+dOxyD36ecz/yx3LKY/uhIb+wBPZ0A7Mrrpe/hgM0hMZbK/V2WnVmTL98nL5BvJWFjf3rtiZJ8Oe8swA7+iuyU5eLPj5OVoL+IDgtq+/B9dbbffC+OSbLEls+FVJ/b43G+ofThan8+HJCp7jnn3LzuzJ/dJ6dNrvLKt+1eSXX9rPNDLQ+X6m3YlmXS9nc3LIVfaCE5+vqI5fVbRk2siluGL95YfMpuaH39haHj/w7mo+VhT8P5/6D7WmHLVT854vs/g9yszw04o63CwAAAABJRU5ErkJggg==;" vertex="1" parent="WGCQ1PHkLu7HlypYQ9xg-70">
          <mxGeometry x="29.5" y="10.069999999999993" width="201" height="30.25" as="geometry" />
        </mxCell>
      </root>
    </mxGraphModel>
  </diagram>
</mxfile>
